<!-- icon666.com - MILLIONS OF FREE VECTOR ICONS --><svg id="圖層_1" enable-background="new 0 0 210 210" viewBox="0 0 210 210" xmlns="http://www.w3.org/2000/svg"><path d="m201.6 104.4c-.2-16.8-20.1-15-29.2-13.3 9.1-1.9 28.1-7.9 21.9-23.5s0-.1-.1-.1v-.1c-6.6-15.4-24.3-6.2-32.1-1.2 7.6-5.3 22.9-18.1 11.2-30.1s-.1-.1-.1-.1-.1-.1-.1-.1c-12.1-11.8-24.9 3.4-30.1 11.1 5.1-7.8 14.2-25.5-1.2-32.1h-.1s-.1 0-.1-.1c-15.7-6.2-21.6 12.8-23.6 21.8 1.7-9.1 3.4-29-13.3-29.2h-.1-.1c-16.9.3-15.2 20.1-13.5 29.2-2-9-7.9-28-23.5-21.8s-.1 0-.1.1h-.1c-15.5 6.6-6.3 24.3-1.2 32.1-5.3-7.7-18.1-22.9-30.1-11.2s-.1.1-.1.1-.1.1-.1.1c-11.7 12 3.5 24.8 11.2 30-7.8-5.1-25.5-14.2-32.1 1.2v.1s0 .1-.1.1c-6.2 15.7 12.8 21.6 21.8 23.6-9.1-1.7-29-3.4-29.2 13.3v.1.1c.2 16.8 20.1 15 29.2 13.3-9.1 1.9-28.1 7.9-21.9 23.5s0 .1.1.1v.1c6.6 15.4 24.3 6.2 32.1 1.2-7.6 5.3-22.9 18.1-11.2 30.1s.1.1.1.1.1.1.1.1c12 11.7 24.8-3.6 30.1-11.2-5.1 7.8-14.2 25.5 1.2 32.1h.1s.1 0 .1.1c15.6 6.2 21.6-12.8 23.5-21.9-1.7 9.1-3.4 29 13.3 29.2h.1.1c16.8-.2 15-20.1 13.3-29.2 1.9 9.1 7.9 28.1 23.5 21.9s.1 0 .1-.1h.1c15.4-6.6 6.2-24.3 1.2-32.1 5.3 7.6 18.1 22.9 30.1 11.2s.1-.1.1-.1.1-.1.1-.1c11.7-12-3.6-24.8-11.2-30.1 7.8 5.1 25.5 14.2 32.1-1.2v-.1s0-.1.1-.1c6.2-15.6-12.8-21.6-21.9-23.5 9.1 1.7 29 3.4 29.2-13.3v-.1c.3.1.4 0 .4 0z" fill="#efd348"></path><g><g fill="#efc55a"><path d="m67.5 14.8h-.1-.1c-20 8.6 1.5 35.8 1.5 35.8l34.2 51.4 1.6 2.4-.6-2.8-12.2-60.4s-4.1-34.5-24.3-26.4z"></path><path d="m141.5 193.8h.1.1c20-8.6-1.5-35.8-1.5-35.8l-34.2-51.4-1.6-2.4.6 2.8 12.2 60.5c0-.1 4.1 34.4 24.3 26.3z"></path><path d="m14.9 67.2s0 .1-.1.1c0 0 0 .1-.1.1-8 20.3 26.5 24.4 26.5 24.4l60.5 12.2 2.8.6-2.4-1.6-51.4-34.3s-27.2-21.5-35.8-1.5z"></path><path d="m194.1 141.8s0-.1.1-.1c0 0 0-.1.1-.1 8.1-20.2-26.4-24.3-26.4-24.3l-60.5-12.2-2.8-.6 2.4 1.6 51.4 34.2c-.1 0 27.1 21.5 35.7 1.5z"></path><path d="m14.8 141.5v.1.1c8.6 20 35.8-1.5 35.8-1.5l51.4-34.2 2.4-1.6-2.8.6-60.5 12.2c.1 0-34.4 4.1-26.3 24.3z"></path><path d="m194.2 67.5v-.1-.1c-8.6-20-35.8 1.5-35.8 1.5l-51.4 34.2-2.4 1.6 2.8-.6 60.5-12.2c-.1 0 34.4-4.1 26.3-24.3z"></path><path d="m67.2 194.1s.1 0 .1.1c0 0 .1 0 .1.1 20.2 8.1 24.3-26.4 24.3-26.4l12.2-60.5.6-2.8-1.6 2.4-34.2 51.4c0-.1-21.5 27.1-1.5 35.7z"></path><path d="m141.8 14.9s-.1 0-.1-.1c0 0-.1 0-.1-.1-20.2-8.1-24.3 26.4-24.3 26.4l-12.2 60.5-.6 2.8 1.6-2.4 34.2-51.4c0 .1 21.5-27.1 1.5-35.7z"></path></g></g><path d="m144.4 117.9c3.9 0 7-3.1 7-7s-3.1-7-7-7c-.4 0-.8 0-1.2.1 0 0 .1-.1.1-.1h.4c3.9 0 7-3.1 7-7 0-3.6-2.8-6.6-6.3-7 1.6-1.3 2.6-3.3 2.6-5.5 0-3.7-2.9-6.8-6.6-7 .4-.9.6-1.8.6-2.8 0-3.9-3.1-7-7-7-.7 0-1.4.1-2 .3-.5-1.6-1.5-3.1-3.1-4-1.1-.7-2.3-1-3.6-1-.8-2.9-3.5-5.1-6.7-5.1-1.3 0-2.5.4-3.6 1-2.1-.3-4.3.4-5.9 2-.6.6-1 1.2-1.4 1.9-.3 0-.5 0-.8 0-.3-1.3-.9-2.4-1.9-3.4-2.7-2.7-7.2-2.7-9.9 0-.1.1-.2.2-.3.3-2.3 0-4.4 1.2-5.6 3-2.6-1.4-6-.9-8.2 1.3-2.6 2.6-2.7 6.7-.5 9.4-.1 0-.1.1-.2.1 0 0 0 0 0-.1-2.7-2.7-7.2-2.7-9.9 0-2.4 2.4-2.7 6.2-.8 8.9-1.2-.1-2.4.1-3.6.7-3.5 1.7-4.9 5.9-3.2 9.4-.5.8-.8 1.6-.9 2.6-.9.3-1.7.9-2.3 1.6-2.7 2.7-2.7 7.2 0 9.9 1.2 1.2 2.6 1.8 4.1 2-.5.3-1 .7-1.5 1.1-2.5 1.6-3.8 4.6-3.1 7.6.7 2.9 3.1 4.9 5.9 5.3-.7 1.1-1.2 2.4-1.2 3.9 0 3.9 3.1 7 7 7 1.4 0 2.7-.4 3.8-1.1 0 0 0 0 .1.1-1.3 1.3-2 3-2 4.9 0 3.9 3.1 7 7 7 2.5 0 4.7-1.3 5.9-3.2.2.3.3.6.5.8-.2.7-.3 1.3-.3 2.1 0 3.9 3.1 7 7 7 3.5 0 6.4-2.6 6.9-6h.1.2c.1 3.8 3.2 6.8 7 6.8 3.4 0 6.3-2.5 6.9-5.7.8.9 1.8 1.6 3 2.1 3.7 1.3 7.7-.7 8.9-4.4.3-.9.4-1.7.4-2.6 1.3 1.2 3 2 4.9 2 3.9 0 7-3.1 7-7 0-1.6-.6-3.1-1.5-4.3.6.2 1.2.2 1.8.2 3.9 0 7-3.1 7-7 0-3.5-2.5-6.4-5.9-6.9 0-.1 0-.2 0-.3.5-.1 1-.3 1.4-.5 1.3.4 2.4.6 3.5.6z" fill="#564722"></path></svg>